<svg xmlns="http://www.w3.org/2000/svg" viewBox="0 0 28 20">
  <path d="M27.9727 3.12324C27.6435 1.89288 26.6768 0.926297 25.4464 0.597051C23.2056 0 14.3407 0 14.3407 0C14.3407 0 5.47581 0 3.23494 0.597051C2.00481 0.926297 1.03812 1.89288 0.708947 3.12324C0.111938 5.36412 0.111938 10.0392 0.111938 10.0392C0.111938 10.0392 0.111938 14.7142 0.708947 16.9551C1.03812 18.1855 2.00481 19.0739 3.23494 19.4031C5.47581 20 14.3407 20 14.3407 20C14.3407 20 23.2056 20 25.4464 19.4031C26.6768 19.0739 27.6435 18.1855 27.9727 16.9551C28.5697 14.7142 28.5697 10.0392 28.5697 10.0392C28.5697 10.0392 28.5697 5.36412 27.9727 3.12324Z" fill="#FF0000"/>
  <path d="M11.4128 14.2984L18.8887 10.0391L11.4128 5.77991V14.2984Z" fill="white"/>
</svg>
